solid OpenSCAD_Model
  facet normal -0 0 1
    outer loop
      vertex 27.5 18.7258 3
      vertex 29.5 17 3
      vertex 29.5 18.7258 3
    endloop
  endfacet
  facet normal 0 0 1
    outer loop
      vertex 29.5 17 3
      vertex 27.5 18.7258 3
      vertex 27.5 17 3
    endloop
  endfacet
  facet normal 0 0 -1
    outer loop
      vertex 27.5 0 0
      vertex 29.5 48 0
      vertex 29.5 0 0
    endloop
  endfacet
  facet normal -0 0 -1
    outer loop
      vertex 29.5 48 0
      vertex 27.5 0 0
      vertex 27.5 48 0
    endloop
  endfacet
  facet normal 0 1 -0
    outer loop
      vertex 29.5 48 0
      vertex 27.5 48 1
      vertex 29.5 48 1
    endloop
  endfacet
  facet normal 0 1 0
    outer loop
      vertex 27.5 48 1
      vertex 29.5 48 0
      vertex 27.5 48 0
    endloop
  endfacet
  facet normal 0 1 -0
    outer loop
      vertex 29.5 17 3
      vertex 27.5 17 4.89999
      vertex 29.5 17 4.89999
    endloop
  endfacet
  facet normal 0 1 0
    outer loop
      vertex 27.5 17 4.89999
      vertex 29.5 17 3
      vertex 27.5 17 3
    endloop
  endfacet
  facet normal -0 0 1
    outer loop
      vertex 27.5 17 4.89999
      vertex 29.5 0 4.89999
      vertex 29.5 17 4.89999
    endloop
  endfacet
  facet normal 0 0 1
    outer loop
      vertex 29.5 0 4.89999
      vertex 27.5 17 4.89999
      vertex 27.5 0 4.89999
    endloop
  endfacet
  facet normal 0 -1 0
    outer loop
      vertex 27.5 0 0
      vertex 29.5 0 4.89999
      vertex 27.5 0 4.89999
    endloop
  endfacet
  facet normal 0 -1 -0
    outer loop
      vertex 29.5 0 4.89999
      vertex 27.5 0 0
      vertex 29.5 0 0
    endloop
  endfacet
  facet normal -0 0.0941123 0.995562
    outer loop
      vertex 27.5 24 1
      vertex 29.5 22.5009 1.14171
      vertex 29.5 24 1
    endloop
  endfacet
  facet normal 0 0.0941123 0.995562
    outer loop
      vertex 29.5 22.5009 1.14171
      vertex 27.5 24 1
      vertex 27.5 22.5009 1.14171
    endloop
  endfacet
  facet normal -0 0 1
    outer loop
      vertex 27.5 48 1
      vertex 29.5 24 1
      vertex 29.5 48 1
    endloop
  endfacet
  facet normal 0 0 1
    outer loop
      vertex 29.5 24 1
      vertex 27.5 48 1
      vertex 27.5 24 1
    endloop
  endfacet
  facet normal -0 0.481751 0.876308
    outer loop
      vertex 27.5 20.5938 1.76138
      vertex 29.5 19.7134 2.24538
      vertex 29.5 20.5938 1.76138
    endloop
  endfacet
  facet normal 0 0.481751 0.876308
    outer loop
      vertex 29.5 19.7134 2.24538
      vertex 27.5 20.5938 1.76138
      vertex 27.5 19.7134 2.24538
    endloop
  endfacet
  facet normal -0 0.684544 0.728971
    outer loop
      vertex 27.5 18.9006 2.83589
      vertex 29.5 18.7258 3
      vertex 29.5 18.9006 2.83589
    endloop
  endfacet
  facet normal 0 0.684544 0.728971
    outer loop
      vertex 29.5 18.7258 3
      vertex 27.5 18.9006 2.83589
      vertex 27.5 18.7258 3
    endloop
  endfacet
  facet normal -0 0.587785 0.809017
    outer loop
      vertex 27.5 19.7134 2.24538
      vertex 29.5 18.9006 2.83589
      vertex 29.5 19.7134 2.24538
    endloop
  endfacet
  facet normal 0 0.587785 0.809017
    outer loop
      vertex 29.5 18.9006 2.83589
      vertex 27.5 19.7134 2.24538
      vertex 27.5 18.9006 2.83589
    endloop
  endfacet
  facet normal -0 0.368131 0.929774
    outer loop
      vertex 27.5 21.5279 1.39154
      vertex 29.5 20.5938 1.76138
      vertex 29.5 21.5279 1.39154
    endloop
  endfacet
  facet normal 0 0.368131 0.929774
    outer loop
      vertex 29.5 20.5938 1.76138
      vertex 27.5 21.5279 1.39154
      vertex 27.5 20.5938 1.76138
    endloop
  endfacet
  facet normal -0 0.248678 0.968586
    outer loop
      vertex 27.5 22.5009 1.14171
      vertex 29.5 21.5279 1.39154
      vertex 29.5 22.5009 1.14171
    endloop
  endfacet
  facet normal 0 0.248678 0.968586
    outer loop
      vertex 29.5 21.5279 1.39154
      vertex 27.5 22.5009 1.14171
      vertex 27.5 21.5279 1.39154
    endloop
  endfacet
  facet normal -1 0 0
    outer loop
      vertex 27.5 48 0
      vertex 27.5 24 1
      vertex 27.5 48 1
    endloop
  endfacet
  facet normal -1 0 0
    outer loop
      vertex 27.5 18.9006 2.83589
      vertex 27.5 17 3
      vertex 27.5 18.7258 3
    endloop
  endfacet
  facet normal -1 0 0
    outer loop
      vertex 27.5 19.7134 2.24538
      vertex 27.5 17 3
      vertex 27.5 18.9006 2.83589
    endloop
  endfacet
  facet normal -1 0 0
    outer loop
      vertex 27.5 20.5938 1.76138
      vertex 27.5 17 3
      vertex 27.5 19.7134 2.24538
    endloop
  endfacet
  facet normal -1 0 0
    outer loop
      vertex 27.5 0 0
      vertex 27.5 20.5938 1.76138
      vertex 27.5 21.5279 1.39154
    endloop
  endfacet
  facet normal -1 0 0
    outer loop
      vertex 27.5 0 0
      vertex 27.5 24 1
      vertex 27.5 48 0
    endloop
  endfacet
  facet normal -1 0 0
    outer loop
      vertex 27.5 0 0
      vertex 27.5 22.5009 1.14171
      vertex 27.5 24 1
    endloop
  endfacet
  facet normal -1 0 0
    outer loop
      vertex 27.5 0 0
      vertex 27.5 21.5279 1.39154
      vertex 27.5 22.5009 1.14171
    endloop
  endfacet
  facet normal -1 -0 0
    outer loop
      vertex 27.5 20.5938 1.76138
      vertex 27.5 0 0
      vertex 27.5 17 3
    endloop
  endfacet
  facet normal -1 0 0
    outer loop
      vertex 27.5 0 4.89999
      vertex 27.5 17 3
      vertex 27.5 0 0
    endloop
  endfacet
  facet normal -1 0 0
    outer loop
      vertex 27.5 17 3
      vertex 27.5 0 4.89999
      vertex 27.5 17 4.89999
    endloop
  endfacet
  facet normal 1 0 0
    outer loop
      vertex 29.5 17 4.89999
      vertex 29.5 0 4.89999
      vertex 29.5 17 3
    endloop
  endfacet
  facet normal 1 -0 0
    outer loop
      vertex 29.5 24 1
      vertex 29.5 48 0
      vertex 29.5 48 1
    endloop
  endfacet
  facet normal 1 -0 0
    outer loop
      vertex 29.5 17 3
      vertex 29.5 18.9006 2.83589
      vertex 29.5 18.7258 3
    endloop
  endfacet
  facet normal 1 0 0
    outer loop
      vertex 29.5 17 3
      vertex 29.5 19.7134 2.24538
      vertex 29.5 18.9006 2.83589
    endloop
  endfacet
  facet normal 1 0 0
    outer loop
      vertex 29.5 17 3
      vertex 29.5 20.5938 1.76138
      vertex 29.5 19.7134 2.24538
    endloop
  endfacet
  facet normal 1 0 0
    outer loop
      vertex 29.5 0 0
      vertex 29.5 20.5938 1.76138
      vertex 29.5 17 3
    endloop
  endfacet
  facet normal 1 0 0
    outer loop
      vertex 29.5 0 0
      vertex 29.5 17 3
      vertex 29.5 0 4.89999
    endloop
  endfacet
  facet normal 1 0 0
    outer loop
      vertex 29.5 20.5938 1.76138
      vertex 29.5 0 0
      vertex 29.5 21.5279 1.39154
    endloop
  endfacet
  facet normal 1 0 0
    outer loop
      vertex 29.5 24 1
      vertex 29.5 0 0
      vertex 29.5 48 0
    endloop
  endfacet
  facet normal 1 0 0
    outer loop
      vertex 29.5 22.5009 1.14171
      vertex 29.5 0 0
      vertex 29.5 24 1
    endloop
  endfacet
  facet normal 1 0 0
    outer loop
      vertex 29.5 21.5279 1.39154
      vertex 29.5 0 0
      vertex 29.5 22.5009 1.14171
    endloop
  endfacet
endsolid OpenSCAD_Model
